<mxfile host="Electron" agent="Mozilla/5.0 (Macintosh; Intel Mac OS X 10_15_7) AppleWebKit/537.36 (KHTML, like Gecko) draw.io/27.0.9 Chrome/134.0.6998.205 Electron/35.4.0 Safari/537.36" version="27.0.9">
  <diagram name="Page-1" id="32iR78s6OEpn3Xhuen9s">
    <mxGraphModel dx="164" dy="121" grid="1" gridSize="10" guides="1" tooltips="1" connect="1" arrows="1" fold="1" page="1" pageScale="1" pageWidth="2756" pageHeight="1969" math="1" shadow="0">
      <root>
        <mxCell id="0" />
        <mxCell id="1" parent="0" />
        <mxCell id="z8yD29RPJrQqJ-ylecS4-4" value="" style="curved=1;endArrow=none;html=1;rounded=0;exitX=1;exitY=0;exitDx=0;exitDy=0;startFill=0;strokeColor=#6666FF;strokeWidth=3.9369999999999994;" parent="1" source="z8yD29RPJrQqJ-ylecS4-3" edge="1">
          <mxGeometry width="50" height="50" relative="1" as="geometry">
            <mxPoint x="317.5" y="330" as="sourcePoint" />
            <mxPoint x="920" y="240" as="targetPoint" />
            <Array as="points">
              <mxPoint x="210" y="280" />
            </Array>
          </mxGeometry>
        </mxCell>
        <mxCell id="zwT7UT4Ypd_ubqG9IkE--15" value="" style="curved=1;endArrow=none;html=1;rounded=0;exitX=1;exitY=0;exitDx=0;exitDy=0;startFill=0;strokeColor=#FF3333;strokeWidth=3.9369999999999994;" edge="1" parent="1" source="z8yD29RPJrQqJ-ylecS4-3">
          <mxGeometry width="50" height="50" relative="1" as="geometry">
            <mxPoint x="170" y="429" as="sourcePoint" />
            <mxPoint x="920" y="200" as="targetPoint" />
            <Array as="points">
              <mxPoint x="211" y="280" />
            </Array>
          </mxGeometry>
        </mxCell>
        <mxCell id="Kp-Ovu6cOvrUl_34OLHo-1" value="\(u_0\)" style="text;html=1;align=center;verticalAlign=middle;whiteSpace=wrap;rounded=0;fontSize=24;" parent="1" vertex="1">
          <mxGeometry x="440" y="200" width="60" height="30" as="geometry" />
        </mxCell>
        <mxCell id="NfsTIdV59j-YyPxWEtSR-15" value="\(\langle u\rangle\)" style="text;html=1;align=center;verticalAlign=middle;whiteSpace=wrap;rounded=0;fontSize=24;" parent="1" vertex="1">
          <mxGeometry x="440" y="330" width="60" height="30" as="geometry" />
        </mxCell>
        <mxCell id="NfsTIdV59j-YyPxWEtSR-18" value="" style="curved=1;endArrow=none;html=1;rounded=0;exitX=1.07;exitY=0.351;exitDx=0;exitDy=0;startFill=0;exitPerimeter=0;strokeColor=#6666FF;" parent="1" source="z8yD29RPJrQqJ-ylecS4-3" edge="1">
          <mxGeometry width="50" height="50" relative="1" as="geometry">
            <mxPoint x="340" y="468" as="sourcePoint" />
            <mxPoint x="510" y="280" as="targetPoint" />
            <Array as="points">
              <mxPoint x="510" y="400" />
            </Array>
          </mxGeometry>
        </mxCell>
        <mxCell id="NfsTIdV59j-YyPxWEtSR-19" value="" style="endArrow=none;dashed=1;html=1;rounded=0;dashPattern=12 12;" parent="1" edge="1">
          <mxGeometry width="50" height="50" relative="1" as="geometry">
            <mxPoint x="429.9" y="425" as="sourcePoint" />
            <mxPoint x="430" y="160" as="targetPoint" />
          </mxGeometry>
        </mxCell>
        <mxCell id="NfsTIdV59j-YyPxWEtSR-21" value="" style="endArrow=classic;html=1;rounded=0;" parent="1" edge="1">
          <mxGeometry width="50" height="50" relative="1" as="geometry">
            <mxPoint x="430" y="300" as="sourcePoint" />
            <mxPoint x="509" y="300.34" as="targetPoint" />
          </mxGeometry>
        </mxCell>
        <mxCell id="NfsTIdV59j-YyPxWEtSR-22" value="" style="endArrow=classic;html=1;rounded=0;" parent="1" edge="1">
          <mxGeometry width="50" height="50" relative="1" as="geometry">
            <mxPoint x="430" y="279.31" as="sourcePoint" />
            <mxPoint x="510" y="279.65" as="targetPoint" />
          </mxGeometry>
        </mxCell>
        <mxCell id="NfsTIdV59j-YyPxWEtSR-23" value="" style="endArrow=classic;html=1;rounded=0;" parent="1" edge="1">
          <mxGeometry width="50" height="50" relative="1" as="geometry">
            <mxPoint x="430" y="260" as="sourcePoint" />
            <mxPoint x="510" y="260.34" as="targetPoint" />
          </mxGeometry>
        </mxCell>
        <mxCell id="NfsTIdV59j-YyPxWEtSR-24" value="" style="endArrow=classic;html=1;rounded=0;" parent="1" edge="1">
          <mxGeometry width="50" height="50" relative="1" as="geometry">
            <mxPoint x="430" y="240" as="sourcePoint" />
            <mxPoint x="510" y="240.33999999999997" as="targetPoint" />
          </mxGeometry>
        </mxCell>
        <mxCell id="NfsTIdV59j-YyPxWEtSR-25" value="" style="endArrow=classic;html=1;rounded=0;" parent="1" edge="1">
          <mxGeometry width="50" height="50" relative="1" as="geometry">
            <mxPoint x="430" y="190" as="sourcePoint" />
            <mxPoint x="510" y="190.33999999999997" as="targetPoint" />
          </mxGeometry>
        </mxCell>
        <mxCell id="NfsTIdV59j-YyPxWEtSR-26" value="" style="endArrow=classic;html=1;rounded=0;" parent="1" edge="1">
          <mxGeometry width="50" height="50" relative="1" as="geometry">
            <mxPoint x="430" y="170" as="sourcePoint" />
            <mxPoint x="510" y="170.33999999999997" as="targetPoint" />
          </mxGeometry>
        </mxCell>
        <mxCell id="NfsTIdV59j-YyPxWEtSR-27" value="" style="endArrow=classic;html=1;rounded=0;" parent="1" edge="1">
          <mxGeometry width="50" height="50" relative="1" as="geometry">
            <mxPoint x="170" y="240" as="sourcePoint" />
            <mxPoint x="250" y="240.33999999999997" as="targetPoint" />
          </mxGeometry>
        </mxCell>
        <mxCell id="NfsTIdV59j-YyPxWEtSR-28" value="" style="endArrow=classic;html=1;rounded=0;" parent="1" edge="1">
          <mxGeometry width="50" height="50" relative="1" as="geometry">
            <mxPoint x="170" y="300" as="sourcePoint" />
            <mxPoint x="250" y="300.34000000000003" as="targetPoint" />
          </mxGeometry>
        </mxCell>
        <mxCell id="NfsTIdV59j-YyPxWEtSR-29" value="" style="endArrow=classic;html=1;rounded=0;" parent="1" edge="1">
          <mxGeometry width="50" height="50" relative="1" as="geometry">
            <mxPoint x="430" y="320" as="sourcePoint" />
            <mxPoint x="507.5" y="320" as="targetPoint" />
          </mxGeometry>
        </mxCell>
        <mxCell id="NfsTIdV59j-YyPxWEtSR-31" value="" style="endArrow=classic;html=1;rounded=0;" parent="1" edge="1">
          <mxGeometry width="50" height="50" relative="1" as="geometry">
            <mxPoint x="430" y="369.66" as="sourcePoint" />
            <mxPoint x="494" y="370" as="targetPoint" />
          </mxGeometry>
        </mxCell>
        <mxCell id="NfsTIdV59j-YyPxWEtSR-32" value="" style="endArrow=classic;html=1;rounded=0;" parent="1" edge="1">
          <mxGeometry width="50" height="50" relative="1" as="geometry">
            <mxPoint x="430" y="390" as="sourcePoint" />
            <mxPoint x="481" y="390" as="targetPoint" />
          </mxGeometry>
        </mxCell>
        <mxCell id="NfsTIdV59j-YyPxWEtSR-33" value="" style="endArrow=classic;html=1;rounded=0;" parent="1" edge="1">
          <mxGeometry width="50" height="50" relative="1" as="geometry">
            <mxPoint x="430" y="409.66" as="sourcePoint" />
            <mxPoint x="461" y="410" as="targetPoint" />
          </mxGeometry>
        </mxCell>
        <mxCell id="NfsTIdV59j-YyPxWEtSR-35" value="" style="endArrow=classic;html=1;rounded=0;" parent="1" edge="1">
          <mxGeometry width="50" height="50" relative="1" as="geometry">
            <mxPoint x="170" y="280" as="sourcePoint" />
            <mxPoint x="250" y="280.34000000000003" as="targetPoint" />
          </mxGeometry>
        </mxCell>
        <mxCell id="NfsTIdV59j-YyPxWEtSR-36" value="" style="endArrow=classic;html=1;rounded=0;" parent="1" edge="1">
          <mxGeometry width="50" height="50" relative="1" as="geometry">
            <mxPoint x="170" y="260" as="sourcePoint" />
            <mxPoint x="250" y="260.34000000000003" as="targetPoint" />
          </mxGeometry>
        </mxCell>
        <mxCell id="NfsTIdV59j-YyPxWEtSR-37" value="" style="endArrow=classic;html=1;rounded=0;" parent="1" edge="1">
          <mxGeometry width="50" height="50" relative="1" as="geometry">
            <mxPoint x="170" y="319.6" as="sourcePoint" />
            <mxPoint x="250" y="319.94000000000005" as="targetPoint" />
          </mxGeometry>
        </mxCell>
        <mxCell id="NfsTIdV59j-YyPxWEtSR-38" value="" style="endArrow=classic;html=1;rounded=0;" parent="1" edge="1">
          <mxGeometry width="50" height="50" relative="1" as="geometry">
            <mxPoint x="170" y="220" as="sourcePoint" />
            <mxPoint x="250" y="220.33999999999997" as="targetPoint" />
          </mxGeometry>
        </mxCell>
        <mxCell id="NfsTIdV59j-YyPxWEtSR-39" value="" style="endArrow=classic;html=1;rounded=0;" parent="1" edge="1">
          <mxGeometry width="50" height="50" relative="1" as="geometry">
            <mxPoint x="170" y="200" as="sourcePoint" />
            <mxPoint x="250" y="200.33999999999997" as="targetPoint" />
          </mxGeometry>
        </mxCell>
        <mxCell id="NfsTIdV59j-YyPxWEtSR-40" value="" style="endArrow=classic;html=1;rounded=0;" parent="1" edge="1">
          <mxGeometry width="50" height="50" relative="1" as="geometry">
            <mxPoint x="170" y="180" as="sourcePoint" />
            <mxPoint x="250" y="180.33999999999997" as="targetPoint" />
          </mxGeometry>
        </mxCell>
        <mxCell id="NfsTIdV59j-YyPxWEtSR-41" value="" style="endArrow=open;startArrow=open;html=1;rounded=0;exitX=1.124;exitY=0.37;exitDx=0;exitDy=0;exitPerimeter=0;dashed=1;endFill=0;startFill=0;" parent="1" edge="1">
          <mxGeometry width="50" height="50" relative="1" as="geometry">
            <mxPoint x="319.99750000000006" y="429.02499999999986" as="sourcePoint" />
            <mxPoint x="321" y="326" as="targetPoint" />
          </mxGeometry>
        </mxCell>
        <mxCell id="NfsTIdV59j-YyPxWEtSR-42" value="\(\delta_v(x)\)" style="text;html=1;align=center;verticalAlign=middle;whiteSpace=wrap;rounded=0;fontSize=24;" parent="1" vertex="1">
          <mxGeometry x="330" y="370" width="60" height="30" as="geometry" />
        </mxCell>
        <mxCell id="NfsTIdV59j-YyPxWEtSR-44" value="" style="endArrow=open;startArrow=none;html=1;rounded=0;exitX=1.124;exitY=0.37;exitDx=0;exitDy=0;exitPerimeter=0;dashed=1;endFill=0;startFill=0;" parent="1" edge="1">
          <mxGeometry width="50" height="50" relative="1" as="geometry">
            <mxPoint x="110" y="478.04499999999985" as="sourcePoint" />
            <mxPoint x="111.00249999999994" y="390" as="targetPoint" />
          </mxGeometry>
        </mxCell>
        <mxCell id="NfsTIdV59j-YyPxWEtSR-45" value="\(x\)" style="text;html=1;align=right;verticalAlign=middle;whiteSpace=wrap;rounded=0;fontSize=24;" parent="1" vertex="1">
          <mxGeometry x="140" y="450" width="60" height="30" as="geometry" />
        </mxCell>
        <mxCell id="NfsTIdV59j-YyPxWEtSR-46" value="\(y\)" style="text;html=1;align=left;verticalAlign=middle;whiteSpace=wrap;rounded=0;fontSize=24;" parent="1" vertex="1">
          <mxGeometry x="120" y="380" width="30" height="30" as="geometry" />
        </mxCell>
        <mxCell id="NfsTIdV59j-YyPxWEtSR-47" value="" style="endArrow=open;startArrow=none;html=1;rounded=0;dashed=1;endFill=0;startFill=0;" parent="1" edge="1">
          <mxGeometry width="50" height="50" relative="1" as="geometry">
            <mxPoint x="110" y="480" as="sourcePoint" />
            <mxPoint x="200" y="480" as="targetPoint" />
          </mxGeometry>
        </mxCell>
        <mxCell id="zwT7UT4Ypd_ubqG9IkE--1" value="\(T_0\)" style="text;html=1;align=center;verticalAlign=middle;whiteSpace=wrap;rounded=0;fontSize=24;" vertex="1" parent="1">
          <mxGeometry x="671" y="180" width="60" height="30" as="geometry" />
        </mxCell>
        <mxCell id="zwT7UT4Ypd_ubqG9IkE--2" value="\(\langle T\rangle\)" style="text;html=1;align=center;verticalAlign=middle;whiteSpace=wrap;rounded=0;fontSize=24;" vertex="1" parent="1">
          <mxGeometry x="671" y="330" width="60" height="30" as="geometry" />
        </mxCell>
        <mxCell id="zwT7UT4Ypd_ubqG9IkE--3" value="" style="curved=1;endArrow=none;html=1;rounded=0;exitX=1.115;exitY=0.895;exitDx=0;exitDy=0;startFill=0;exitPerimeter=0;strokeColor=#FF3333;" edge="1" parent="1" source="z8yD29RPJrQqJ-ylecS4-3">
          <mxGeometry width="50" height="50" relative="1" as="geometry">
            <mxPoint x="660" y="429" as="sourcePoint" />
            <mxPoint x="741" y="224" as="targetPoint" />
            <Array as="points">
              <mxPoint x="741" y="400" />
            </Array>
          </mxGeometry>
        </mxCell>
        <mxCell id="zwT7UT4Ypd_ubqG9IkE--4" value="" style="endArrow=none;dashed=1;html=1;rounded=0;dashPattern=12 12;" edge="1" parent="1">
          <mxGeometry width="50" height="50" relative="1" as="geometry">
            <mxPoint x="661" y="480" as="sourcePoint" />
            <mxPoint x="661" y="160" as="targetPoint" />
          </mxGeometry>
        </mxCell>
        <mxCell id="zwT7UT4Ypd_ubqG9IkE--5" value="" style="endArrow=classic;html=1;rounded=0;" edge="1" parent="1">
          <mxGeometry width="50" height="50" relative="1" as="geometry">
            <mxPoint x="661" y="300" as="sourcePoint" />
            <mxPoint x="745" y="300" as="targetPoint" />
          </mxGeometry>
        </mxCell>
        <mxCell id="zwT7UT4Ypd_ubqG9IkE--6" value="" style="endArrow=classic;html=1;rounded=0;" edge="1" parent="1">
          <mxGeometry width="50" height="50" relative="1" as="geometry">
            <mxPoint x="661" y="279.31" as="sourcePoint" />
            <mxPoint x="740" y="280" as="targetPoint" />
          </mxGeometry>
        </mxCell>
        <mxCell id="zwT7UT4Ypd_ubqG9IkE--7" value="" style="endArrow=classic;html=1;rounded=0;" edge="1" parent="1">
          <mxGeometry width="50" height="50" relative="1" as="geometry">
            <mxPoint x="661" y="260" as="sourcePoint" />
            <mxPoint x="741" y="260.34" as="targetPoint" />
          </mxGeometry>
        </mxCell>
        <mxCell id="zwT7UT4Ypd_ubqG9IkE--8" value="" style="endArrow=classic;html=1;rounded=0;" edge="1" parent="1">
          <mxGeometry width="50" height="50" relative="1" as="geometry">
            <mxPoint x="661" y="240" as="sourcePoint" />
            <mxPoint x="741" y="240.33999999999997" as="targetPoint" />
          </mxGeometry>
        </mxCell>
        <mxCell id="zwT7UT4Ypd_ubqG9IkE--9" value="" style="endArrow=classic;html=1;rounded=0;" edge="1" parent="1">
          <mxGeometry width="50" height="50" relative="1" as="geometry">
            <mxPoint x="661" y="214.66" as="sourcePoint" />
            <mxPoint x="741" y="214.99999999999997" as="targetPoint" />
          </mxGeometry>
        </mxCell>
        <mxCell id="zwT7UT4Ypd_ubqG9IkE--10" value="" style="endArrow=classic;html=1;rounded=0;" edge="1" parent="1">
          <mxGeometry width="50" height="50" relative="1" as="geometry">
            <mxPoint x="661" y="170" as="sourcePoint" />
            <mxPoint x="741" y="170.33999999999997" as="targetPoint" />
          </mxGeometry>
        </mxCell>
        <mxCell id="zwT7UT4Ypd_ubqG9IkE--11" value="" style="endArrow=classic;html=1;rounded=0;" edge="1" parent="1">
          <mxGeometry width="50" height="50" relative="1" as="geometry">
            <mxPoint x="661" y="320" as="sourcePoint" />
            <mxPoint x="750" y="320" as="targetPoint" />
          </mxGeometry>
        </mxCell>
        <mxCell id="zwT7UT4Ypd_ubqG9IkE--12" value="" style="endArrow=classic;html=1;rounded=0;" edge="1" parent="1">
          <mxGeometry width="50" height="50" relative="1" as="geometry">
            <mxPoint x="661" y="369.66" as="sourcePoint" />
            <mxPoint x="767" y="370" as="targetPoint" />
          </mxGeometry>
        </mxCell>
        <mxCell id="zwT7UT4Ypd_ubqG9IkE--13" value="" style="endArrow=classic;html=1;rounded=0;" edge="1" parent="1">
          <mxGeometry width="50" height="50" relative="1" as="geometry">
            <mxPoint x="661" y="390" as="sourcePoint" />
            <mxPoint x="780" y="390" as="targetPoint" />
          </mxGeometry>
        </mxCell>
        <mxCell id="zwT7UT4Ypd_ubqG9IkE--14" value="" style="endArrow=classic;html=1;rounded=0;" edge="1" parent="1">
          <mxGeometry width="50" height="50" relative="1" as="geometry">
            <mxPoint x="661" y="409.66" as="sourcePoint" />
            <mxPoint x="801" y="410" as="targetPoint" />
          </mxGeometry>
        </mxCell>
        <mxCell id="zwT7UT4Ypd_ubqG9IkE--16" value="" style="endArrow=open;startArrow=open;html=1;rounded=0;exitX=1.21;exitY=0.95;exitDx=0;exitDy=0;exitPerimeter=0;dashed=1;endFill=0;startFill=0;" edge="1" parent="1" source="z8yD29RPJrQqJ-ylecS4-3">
          <mxGeometry width="50" height="50" relative="1" as="geometry">
            <mxPoint x="880" y="423.02499999999986" as="sourcePoint" />
            <mxPoint x="880" y="207" as="targetPoint" />
          </mxGeometry>
        </mxCell>
        <mxCell id="zwT7UT4Ypd_ubqG9IkE--17" value="\(\delta_T(x)\)" style="text;html=1;align=center;verticalAlign=middle;whiteSpace=wrap;rounded=0;fontSize=24;" vertex="1" parent="1">
          <mxGeometry x="810.0024999999999" y="300" width="60" height="30" as="geometry" />
        </mxCell>
        <mxCell id="zwT7UT4Ypd_ubqG9IkE--18" value="\(T_S\)" style="text;html=1;align=center;verticalAlign=middle;whiteSpace=wrap;rounded=0;fontSize=24;" vertex="1" parent="1">
          <mxGeometry x="731" y="470" width="60" height="30" as="geometry" />
        </mxCell>
        <mxCell id="zwT7UT4Ypd_ubqG9IkE--19" value="" style="endArrow=classic;html=1;rounded=0;" edge="1" parent="1">
          <mxGeometry width="50" height="50" relative="1" as="geometry">
            <mxPoint x="660" y="460" as="sourcePoint" />
            <mxPoint x="840" y="460" as="targetPoint" />
          </mxGeometry>
        </mxCell>
        <mxCell id="z8yD29RPJrQqJ-ylecS4-3" value="" style="shape=manualInput;whiteSpace=wrap;html=1;rotation=-90;fillColor=#647687;fontColor=#ffffff;strokeColor=#314354;" parent="1" vertex="1">
          <mxGeometry x="536.25" y="61.25" width="13.75" height="748.75" as="geometry" />
        </mxCell>
      </root>
    </mxGraphModel>
  </diagram>
</mxfile>
